<svg width="74" height="75" viewBox="0 0 74 75" fill="none" xmlns="http://www.w3.org/2000/svg">
<path d="M10.4904 43.2078L10.411 43.7276L10.7828 44.0995L38.918 72.2347L39.6527 72.9694L40.3875 72.2347L71.7347 40.8874L72.4694 40.1527L71.7347 39.418L43.2531 10.9364L42.8745 10.5579L42.3466 10.6464L15.5018 15.1489L14.7602 15.2733L14.6466 16.0166L10.4904 43.2078Z" fill="#ED2224" stroke="white" stroke-width="2.07805"/>
<path d="M30.3938 20.6801C31.2573 20.6801 31.9516 20.9468 32.4765 21.4802C33.0098 22.0051 33.2765 22.7416 33.2765 23.6898V27.8171H31.4986V23.9311C31.4986 23.3808 31.3589 22.9618 31.0796 22.6739C30.8002 22.3776 30.4192 22.2294 29.9366 22.2294C29.4541 22.2294 29.0689 22.3776 28.781 22.6739C28.5016 22.9618 28.3619 23.3808 28.3619 23.9311V27.8171H26.584V23.9311C26.584 23.3808 26.4444 22.9618 26.165 22.6739C25.8856 22.3776 25.5046 22.2294 25.022 22.2294C24.531 22.2294 24.1416 22.3776 23.8537 22.6739C23.5743 22.9618 23.4346 23.3808 23.4346 23.9311V27.8171H21.6568V20.7817H23.4346V21.6326C23.6632 21.3363 23.9553 21.1034 24.3109 20.9341C24.6749 20.7648 25.0728 20.6801 25.5046 20.6801C26.0549 20.6801 26.5459 20.7987 26.9777 21.0357C27.4095 21.2643 27.7439 21.5945 27.981 22.0262C28.2095 21.6199 28.5397 21.2939 28.9715 21.0484C29.4117 20.8029 29.8858 20.6801 30.3938 20.6801ZM41.6942 20.7817L37.3384 31.1443H35.4462L36.9701 27.6393L34.1509 20.7817H36.1446L37.9606 25.6963L39.802 20.7817H41.6942ZM25.6189 31.6801C26.1523 31.6801 26.6264 31.7987 27.0412 32.0357C27.4561 32.2643 27.7778 32.6072 28.0064 33.0643C28.2434 33.5131 28.3619 34.0549 28.3619 34.6898V38.8171H26.584V34.9311C26.584 34.3724 26.4444 33.9448 26.165 33.6485C25.8856 33.3437 25.5046 33.1913 25.022 33.1913C24.531 33.1913 24.1416 33.3437 23.8537 33.6485C23.5743 33.9448 23.4346 34.3724 23.4346 34.9311V38.8171H21.6568V29.4197H23.4346V32.658C23.6632 32.3532 23.968 32.1161 24.349 31.9468C24.73 31.769 25.1533 31.6801 25.6189 31.6801ZM33.1766 38.9314C32.4993 38.9314 31.8898 38.7832 31.3479 38.4869C30.8061 38.1821 30.3786 37.7546 30.0653 37.2043C29.7605 36.654 29.6081 36.019 29.6081 35.2994C29.6081 34.5798 29.7648 33.9448 30.078 33.3945C30.3997 32.8442 30.8357 32.4209 31.386 32.1246C31.9363 31.8198 32.5501 31.6674 33.2274 31.6674C33.9047 31.6674 34.5185 31.8198 35.0688 32.1246C35.6191 32.4209 36.0509 32.8442 36.3641 33.3945C36.6858 33.9448 36.8467 34.5798 36.8467 35.2994C36.8467 36.019 36.6816 36.654 36.3514 37.2043C36.0297 37.7546 35.5895 38.1821 35.0307 38.4869C34.4804 38.7832 33.8624 38.9314 33.1766 38.9314ZM33.1766 37.3821C33.4983 37.3821 33.7989 37.3059 34.0783 37.1535C34.3661 36.9926 34.5947 36.7556 34.764 36.4423C34.9333 36.1291 35.018 35.7481 35.018 35.2994C35.018 34.6306 34.8402 34.1184 34.4846 33.7628C34.1375 33.3988 33.71 33.2167 33.202 33.2167C32.694 33.2167 32.2665 33.3988 31.9194 33.7628C31.5807 34.1184 31.4114 34.6306 31.4114 35.2994C31.4114 35.9682 31.5765 36.4847 31.9067 36.8487C32.2453 37.2043 32.6686 37.3821 33.1766 37.3821ZM46.8879 31.6801C47.7514 31.6801 48.4456 31.9468 48.9705 32.4802C49.5039 33.0051 49.7706 33.7416 49.7706 34.6898V38.8171H47.9927V34.9311C47.9927 34.3808 47.853 33.9618 47.5736 33.6739C47.2942 33.3776 46.9133 33.2294 46.4307 33.2294C45.9481 33.2294 45.5629 33.3776 45.2751 33.6739C44.9957 33.9618 44.856 34.3808 44.856 34.9311V38.8171H43.0781V34.9311C43.0781 34.3808 42.9384 33.9618 42.659 33.6739C42.3796 33.3776 41.9987 33.2294 41.5161 33.2294C41.0251 33.2294 40.6356 33.3776 40.3478 33.6739C40.0684 33.9618 39.9287 34.3808 39.9287 34.9311V38.8171H38.1508V31.7817H39.9287V32.6326C40.1573 32.3363 40.4494 32.1034 40.8049 31.9341C41.169 31.7648 41.5669 31.6801 41.9987 31.6801C42.549 31.6801 43.04 31.7987 43.4718 32.0357C43.9035 32.2643 44.238 32.5945 44.475 33.0262C44.7036 32.6199 45.0338 32.2939 45.4655 32.0484C45.9058 31.8029 46.3799 31.6801 46.8879 31.6801ZM57.9978 35.147C57.9978 35.401 57.9808 35.6296 57.947 35.8328H52.8038C52.8461 36.3407 53.0239 36.7386 53.3372 37.0265C53.6504 37.3143 54.0356 37.4583 54.4928 37.4583C55.1531 37.4583 55.623 37.1746 55.9024 36.6074H57.82C57.6168 37.2847 57.2273 37.8435 56.6516 38.2837C56.076 38.7155 55.369 38.9314 54.5309 38.9314C53.8536 38.9314 53.244 38.7832 52.7022 38.4869C52.1688 38.1821 51.7498 37.7546 51.445 37.2043C51.1487 36.654 51.0005 36.019 51.0005 35.2994C51.0005 34.5713 51.1487 33.9321 51.445 33.3818C51.7413 32.8315 52.1561 32.4082 52.6895 32.1119C53.2229 31.8156 53.8367 31.6674 54.5309 31.6674C55.1997 31.6674 55.7966 31.8114 56.3215 32.0992C56.8548 32.3871 57.2654 32.7977 57.5533 33.331C57.8496 33.8559 57.9978 34.4613 57.9978 35.147ZM56.1564 34.639C56.1479 34.1819 55.9828 33.8178 55.6611 33.5469C55.3394 33.2675 54.9457 33.1278 54.4801 33.1278C54.0398 33.1278 53.6673 33.2633 53.3626 33.5342C53.0662 33.7967 52.8842 34.1649 52.8165 34.639H56.1564ZM28.1968 46.147C28.1968 46.401 28.1799 46.6296 28.146 46.8328H23.0029C23.0452 47.3407 23.223 47.7386 23.5362 48.0265C23.8495 48.3143 24.2347 48.4583 24.6919 48.4583C25.3522 48.4583 25.8221 48.1746 26.1015 47.6074H28.0191C27.8159 48.2847 27.4264 48.8435 26.8507 49.2837C26.275 49.7155 25.5681 49.9314 24.73 49.9314C24.0527 49.9314 23.4431 49.7832 22.9013 49.4869C22.3679 49.1821 21.9488 48.7546 21.6441 48.2043C21.3477 47.654 21.1996 47.019 21.1996 46.2994C21.1996 45.5713 21.3477 44.9321 21.6441 44.3818C21.9404 43.8315 22.3552 43.4082 22.8886 43.1119C23.4219 42.8156 24.0357 42.6674 24.73 42.6674C25.3988 42.6674 25.9956 42.8114 26.5205 43.0992C27.0539 43.3871 27.4645 43.7977 27.7524 44.331C28.0487 44.8559 28.1968 45.4613 28.1968 46.147ZM26.3555 45.639C26.347 45.1819 26.1819 44.8178 25.8602 44.5469C25.5385 44.2675 25.1448 44.1278 24.6792 44.1278C24.2389 44.1278 23.8664 44.2633 23.5616 44.5342C23.2653 44.7967 23.0833 45.1649 23.0156 45.639H26.3555ZM31.5645 44.2421V47.6455C31.5645 47.8826 31.6195 48.0561 31.7296 48.1662C31.8481 48.2678 32.0428 48.3186 32.3138 48.3186H33.1392V49.8171H32.0217C30.5232 49.8171 29.7739 49.089 29.7739 47.6328V44.2421H28.9358V42.7817H29.7739V41.0419H31.5645V42.7817H33.1392V44.2421H31.5645ZM33.9608 46.274C33.9608 45.5629 34.1005 44.9321 34.3799 44.3818C34.6677 43.8315 35.0529 43.4082 35.5355 43.1119C36.0265 42.8156 36.5726 42.6674 37.1737 42.6674C37.6986 42.6674 38.1557 42.7733 38.5452 42.9849C38.9431 43.1966 39.2606 43.4633 39.4976 43.785V42.7817H41.2882V49.8171H39.4976V48.7884C39.269 49.1186 38.9516 49.3938 38.5452 49.6139C38.1473 49.8255 37.6859 49.9314 37.161 49.9314C36.5683 49.9314 36.0265 49.779 35.5355 49.4742C35.0529 49.1694 34.6677 48.7419 34.3799 48.1916C34.1005 47.6328 33.9608 46.9936 33.9608 46.274ZM39.4976 46.2994C39.4976 45.8676 39.413 45.4994 39.2436 45.1946C39.0743 44.8813 38.8457 44.6443 38.5579 44.4834C38.27 44.3141 37.961 44.2294 37.6308 44.2294C37.3007 44.2294 36.9959 44.3099 36.7165 44.4707C36.4371 44.6316 36.2085 44.8686 36.0308 45.1819C35.8614 45.4867 35.7768 45.8507 35.7768 46.274C35.7768 46.6973 35.8614 47.0698 36.0308 47.3915C36.2085 47.7048 36.4371 47.9461 36.7165 48.1154C37.0044 48.2847 37.3091 48.3694 37.6308 48.3694C37.961 48.3694 38.27 48.2889 38.5579 48.1281C38.8457 47.9588 39.0743 47.7217 39.2436 47.4169C39.413 47.1037 39.4976 46.7312 39.4976 46.2994ZM44.8025 40.4197V49.8171H43.0246V40.4197H44.8025Z" fill="white"/>
</svg>
